<?xml version="1.0" encoding="iso-8859-1"?>
<!-- Generator: Adobe Illustrator 19.0.0, SVG Export Plug-In . SVG Version: 6.00 Build 0)  -->
<svg version="1.1" id="Layer_1" xmlns="http://www.w3.org/2000/svg" xmlns:xlink="http://www.w3.org/1999/xlink" x="0px" y="0px"
	 viewBox="0 0 512 512" style="enable-background:new 0 0 512 512;" xml:space="preserve">
<g>
	<g>
		<path d="M512,317.948v-42.667h-65.192c-4.107-36.978-18.753-70.815-40.865-98.441l46.161-46.161l-30.17-30.17l-46.161,46.161
			c-8.956-7.168-18.559-13.558-28.716-19.054c0.905-5.214,1.387-10.516,1.387-15.892c0-50.974-41.471-92.444-92.444-92.444
			s-92.444,41.471-92.444,92.444c0,5.375,0.482,10.677,1.387,15.892c-10.158,5.495-19.762,11.885-28.716,19.054L90.065,100.51
			l-30.17,30.17l46.161,46.161c-22.111,27.624-36.759,61.463-40.865,98.441H0v42.667h65.192
			c4.107,36.978,18.753,70.815,40.865,98.441l-46.161,46.161l30.17,30.17l46.161-46.161c32.859,26.301,74.509,42.057,119.774,42.057
			s86.915-15.755,119.774-42.057l46.161,46.161l30.17-30.17l-46.161-46.161c22.111-27.624,36.759-61.463,40.865-98.441H512z
			 M256,61.948c27.26,0,49.462,22.03,49.764,49.22c-15.878-4.265-32.557-6.554-49.764-6.554s-33.886,2.288-49.764,6.554
			C206.538,83.978,228.74,61.948,256,61.948z M234.667,444.417c-72.272-10.384-128-72.703-128-147.803
			c0-12.25,1.493-24.155,4.288-35.556h123.712V444.417z M128.845,218.392C155.17,175.757,202.32,147.281,256,147.281
			s100.83,28.476,127.155,71.111H128.845z M277.333,444.417V261.059h123.712c2.795,11.401,4.288,23.306,4.288,35.556
			C405.333,371.715,349.605,434.034,277.333,444.417z"/>
	</g>
</g>
<g>
	<g>
		<path d="M177.778,289.503c-15.684,0-28.444,12.76-28.444,28.444s12.76,28.444,28.444,28.444s28.444-12.76,28.444-28.444
			S193.462,289.503,177.778,289.503z M177.778,332.17c-7.842,0-14.222-6.38-14.222-14.222s6.38-14.222,14.222-14.222
			c7.842,0,14.222,6.38,14.222,14.222S185.62,332.17,177.778,332.17z"/>
	</g>
</g>
<g>
	<g>
		<path d="M334.222,289.503c-15.684,0-28.444,12.76-28.444,28.444s12.76,28.444,28.444,28.444s28.444-12.76,28.444-28.444
			S349.906,289.503,334.222,289.503z M334.222,332.17c-7.842,0-14.222-6.38-14.222-14.222s6.38-14.222,14.222-14.222
			s14.222,6.38,14.222,14.222S342.064,332.17,334.222,332.17z"/>
	</g>
</g>
<g>
</g>
<g>
</g>
<g>
</g>
<g>
</g>
<g>
</g>
<g>
</g>
<g>
</g>
<g>
</g>
<g>
</g>
<g>
</g>
<g>
</g>
<g>
</g>
<g>
</g>
<g>
</g>
<g>
</g>
</svg>
